<?xml version="1.0" encoding="utf-8"?>
<!-- Generator: Adobe Illustrator 27.2.0, SVG Export Plug-In . SVG Version: 6.00 Build 0)  -->
<svg version="1.1" id="Livello_1" xmlns="http://www.w3.org/2000/svg" xmlns:xlink="http://www.w3.org/1999/xlink" x="0px" y="0px"
	 viewBox="0 0 214.6 67.2" style="enable-background:new 0 0 214.6 67.2;" xml:space="preserve">
<style type="text/css">
	.st0{fill:#464252;}
	.st1{fill:url(#SVGID_1_);}
	.st2{fill:#FFFFFF;}
	.st3{fill:url(#SVGID_00000035499264492488842210000010034821155367299507_);}
</style>
<g>
	<g>
		<path class="st0" d="M78.9,46.5c0-10.9,8.2-19.2,19.2-19.2c5.8,0,10.7,2.4,13.9,6.2c0.4,0.6,0.4,1.1,0,1.6l-2.6,2.5
			c-0.6,0.7-1.3,0.4-1.7,0c-2.2-2.4-4.9-4-9.3-4c-7.4,0-12.8,5.4-12.8,13c0,7.6,5.4,13,13,13c4.3,0,7-1.6,9.1-3.9
			c0.5-0.5,1.2-0.7,1.8-0.1L112,58c0.4,0.4,0.4,1,0,1.5c-3.1,3.9-8,6.3-13.9,6.3C87.2,65.8,78.9,57.5,78.9,46.5z"/>
		<path class="st0" d="M113.2,46.6c0-10.9,7.3-19.2,17.9-19.2c6.3,0,10.9,2.9,13.6,7.6l0.1-5.6c0-0.7,0.3-1,1-1h4.3c0.7,0,1,0.4,1,1
			v34.6c0,0.7-0.4,1-1,1h-4.3c-0.7,0-1-0.4-1-1l-0.1-5.5c-2.7,4.6-7.3,7.4-13.6,7.4C120.5,65.8,113.2,57.6,113.2,46.6z M132.3,59.6
			c7.2,0,12.2-5.2,12.2-13s-5-13.1-12.2-13.1c-7.3,0-12.5,5.3-12.5,13C119.8,54.4,125,59.6,132.3,59.6z"/>
		<path class="st0" d="M158.8,63.9V29.3c0-0.7,0.4-1,1-1h4.4c0.7,0,1,0.3,1,1.1l0.2,4.3c1.3-3.6,3.8-6.4,8.3-6.4
			c1.6,0,2.7,0.3,3.4,0.7c0.4,0.4,0.6,0.7,0.6,1.3v3.7c0,0.8-0.5,1-1.3,0.7c-1-0.2-1.9-0.4-2.7-0.4c-6.1,0-8.2,5.2-8.2,9.6v20.7
			c0,0.7-0.3,1-1,1h-4.7C159.2,64.9,158.8,64.5,158.8,63.9z"/>
		<path class="st0" d="M178.7,46.4c0-10.8,7.6-19.1,18.6-19.1c10.9,0,17.3,8.3,17.3,17.4c0,3-0.6,4.3-3.1,4.3h-26.2
			c0.8,6.6,5.5,11.2,13.6,11.2c4,0,7.1-1.1,10-3.1c0.4-0.3,0.9-0.3,1.2,0.1l1.6,2.3c0.5,0.6,0.3,1-0.3,1.6
			c-3.2,3.1-7.9,4.7-13.1,4.7C186.4,65.8,178.7,57.2,178.7,46.4z M208.6,44c-0.4-6.6-4.7-10.9-11.3-10.9s-11.2,4.1-12,10.9H208.6z"
			/>
	</g>
	<path class="st0" d="M73.9,48.1l-3.6-1c-0.4-0.1-0.8,0-1,0.3c-0.1,0.1-0.1,0.1-0.1,0.2c-0.6,1.8-1.3,3.3-2.3,4.8
		c-1,1.4-2.2,2.7-3.7,3.9c-6,4.8-12.2,4.5-16.9,0.2l0,0l20.5-16.3c0.8-0.6,1.3-1.3,1.4-2c0-0.1,0.1-0.2,0.1-0.3
		c0.1-1.1-0.6-2.4-1.8-4c-0.6-0.7-1.2-1.4-1.9-2c-1.7-1.6-3.6-2.9-5.6-3.8c-5.6-2.4-12.4-2-18.4,2.8C34.4,36,32,42.9,33.3,49.7
		c0.1,0.7,0.3,1.4,0.5,2.1c0.1,0.2,0.1,0.4,0.2,0.6c0.3,1,0.8,2,1.3,3c0.1,0.3,0.3,0.5,0.4,0.7c0.2,0.3,0.4,0.7,0.6,1
		c0.5,0.7,1,1.4,1.5,2.1c2.3,2.9,5.1,5.1,8.2,6.4c0.4,0.1,0.7,0.3,1,0.4c0.7,0.3,1.4,0.5,2,0.6c0,0,0.1,0,0.1,0
		c0.7,0.2,1.5,0.3,2.2,0.4c2.7,0.3,5.4,0.1,8.2-0.8c0.6-0.2,1.1-0.4,1.7-0.6c1.1-0.5,2.2-1,3.3-1.7c0.3-0.2,0.6-0.4,0.8-0.6
		c0.5-0.4,1.1-0.7,1.6-1.2c0.8-0.6,1.6-1.3,2.3-2c1.4-1.4,2.6-2.9,3.5-4.5c1.1-1.9,1.8-3.9,2-6C74.9,48.8,74.7,48.3,73.9,48.1z
		 M42.4,51.8c-0.6-1.1-1.1-2.1-1.4-3.2c-0.2-0.8-0.4-1.6-0.4-2.4c-0.3-3.6,1.3-7,4.5-9.6c3.6-2.8,7.6-3.4,11.2-1.5
		c1.3,0.6,2.4,1.5,3.6,2.7c0,0,0,0,0,0l-3.5,2.8L42.4,51.8z"/>
	<linearGradient id="SVGID_1_" gradientUnits="userSpaceOnUse" x1="51.9684" y1="12.2297" x2="24.5544" y2="54.6923">
		<stop  offset="0.2836" style="stop-color:#E91E32"/>
		<stop  offset="0.4169" style="stop-color:#D6182D"/>
		<stop  offset="0.5946" style="stop-color:#C21127"/>
		<stop  offset="0.7159" style="stop-color:#BB0F25"/>
		<stop  offset="0.7323" style="stop-color:#AE152A"/>
		<stop  offset="0.7872" style="stop-color:#892538"/>
		<stop  offset="0.8421" style="stop-color:#6C3244"/>
		<stop  offset="0.8962" style="stop-color:#573B4C"/>
		<stop  offset="0.9493" style="stop-color:#4A4050"/>
		<stop  offset="1" style="stop-color:#464252"/>
	</linearGradient>
	<path class="st1" d="M77.4,31.3l-3,2.4c-0.6,0.4-1.4,0.2-1.7-0.4c-1.7-3.6-3.9-6.3-7-8.6c-1.9-1.4-4.1-2.4-6.6-3
		c-1.2-0.3-2.4-0.5-3.7-0.5c-3.9-0.2-7.5,0.6-10.6,2.3c-0.3,0.2-0.8,0.1-1-0.3L41,18.9c-0.2-0.4-0.1-0.8,0.3-1
		c4.1-2.4,9.1-3.6,14.4-3.3c0.2,0,0.4,0,0.6,0c-3.3-4.9-9-8-15.7-8c-7.8,0-14.1,4.1-17,10.3c-0.8,1.6-1.3,3.4-1.6,5.3
		c-0.1,0.8-0.7,1.4-1.5,1.6c-1.8,0.4-3.5,1.2-5.1,2.1C10,29.1,6.6,35,6.6,42.1c0,10.8,7.9,18.8,18.3,18.8c4.4,0,8.1-1.4,11.3-3.7
		c0.5,0.7,1,1.4,1.5,2.1c1.4,1.8,3.2,3.3,2.5,2.7c-4.1,3.3-9.2,5.3-15.3,5.3C10.6,67.2,0,56.2,0,42c0-10.7,6.1-19.7,15.3-23.3
		c0.5-0.2,0.9-0.7,1.1-1.2C19.4,7.1,28.8,0,40.4,0c11.2,0,20.4,6.7,23.8,16.5c6.2,2.5,11,7.4,13.5,13.5C77.9,30.5,77.7,31,77.4,31.3
		z"/>
</g>
</svg>
